#!OML:ASF H:\ManfredObstacles\Project 1\Capture day 2\Session 1\male.ASF
:FULLY-SPECIFIED
:DEGREES
465
root 1.47653 16.0265 9.03686 -172.023 -0.154648 177.466
lowerback -8.22979 -0.772768 -6.08044
upperback 0.406209 -0.477114 0.339509
thorax 5.10585 -0.414121 3.71771
lowerneck -34.2676 -1.57105 0.705829
upperneck 40.3245 -0.806106 0.462303
head 22.6815 0.661789 0.217898
rclavicle -1.29831e-015 9.74045e-015
rhumerus -35.2278 -18.1727 -78.0625
rradius 27.2598
rwrist 33.0838
rhand -2.64359 -7.14852
rfingers 7.12502
rthumb 23.056 -35.7893
lclavicle -1.29831e-015 9.74045e-015
lhumerus -28.9898 18.0454 81.5502
lradius 19.6096
lwrist -54.3167
lhand 3.17691 5.66896
lfingers 7.12502
lthumb 28.6296 33.4958
rfemur -12.2057 6.12631 21.4716
rtibia 26.6624
rfoot -13.0368 -16.8204
rtoes -9.58799
lfemur -14.879 -4.25615 -25.4269
ltibia 26.8273
lfoot -4.81275 18.904
ltoes 6.61992
466
root 1.4731 16.0263 9.03423 -171.993 -0.164461 177.455
lowerback -8.22334 -0.759006 -6.07742
upperback 0.391402 -0.46016 0.334127
thorax 5.08461 -0.404794 3.71254
lowerneck -34.2098 -1.53552 0.82592
upperneck 40.281 -0.79063 0.38216
head 22.6297 0.673342 0.156286
rclavicle -1.15544e-015 4.47266e-015
rhumerus -35.2218 -18.2164 -78.0385
rradius 27.2375
rwrist 33.0695
rhand -2.60533 -7.15164
rfingers 7.12502
rthumb 23.0927 -35.7878
lclavicle -1.15544e-015 4.47266e-015
lhumerus -29.0417 17.9366 81.5486
lradius 19.6291
lwrist -54.1378
lhand 3.1966 5.72214
lfingers 7.12502
lthumb 28.6484 33.5458
rfemur -12.2303 6.1315 21.4446
rtibia 26.6716
rfoot -13.0551 -16.8419
rtoes -9.61112
lfemur -14.8992 -4.25945 -25.4517
ltibia 26.8237
lfoot -4.81868 18.9049
ltoes 6.62607
467
root 1.46999 16.0261 9.0319 -171.967 -0.173739 177.445
lowerback -8.21851 -0.747752 -6.07887
upperback 0.381373 -0.445865 0.33249
thorax 5.06972 -0.397182 3.71348
lowerneck -34.0337 -1.51257 0.922325
upperneck 40.1917 -0.783351 0.31455
head 22.5097 0.679448 0.10274
rclavicle -5.77718e-015 2.5842e-015
rhumerus -35.2151 -18.2679 -78.0008
rradius 27.1967
rwrist 33.129
rhand -2.59562 -7.1153
rfingers 7.12502
rthumb 23.102 -35.7503
lclavicle -5.77718e-015 2.5842e-015
lhumerus -29.0823 17.8802 81.537
lradius 19.6304
lwrist -53.9971
lhand 3.22823 5.78479
lfingers 7.12502
lthumb 28.6786 33.6034
rfemur -12.2543 6.14466 21.4202
rtibia 26.6835
rfoot -13.071 -16.8718
rtoes -9.62599
lfemur -14.917 -4.26324 -25.4743
ltibia 26.8196
lfoot -4.8251 18.9063
ltoes 6.63122
468
root 1.46718 16.0259 9.02973 -171.944 -0.18289 177.436
lowerback -8.21307 -0.740516 -6.0859
upperback 0.375516 -0.436358 0.336048
thorax 5.05953 -0.392311 3.72241
lowerneck -33.8507 -1.497 0.987703
upperneck 40.0988 -0.777409 0.266904
head 22.3865 0.682719 0.0652465
rclavicle 1.82012e-015 -9.24349e-015
rhumerus -35.209 -18.3153 -77.9539
rradius 27.1444
rwrist 33.2434
rhand -2.60758 -7.05349
rfingers 7.12502
rthumb 23.0905 -35.6899
lclavicle 1.82012e-015 -9.24349e-015
lhumerus -29.1208 17.8817 81.5109
lradius 19.6241
lwrist -53.9212
lhand 3.23119 5.82187
lfingers 7.12502
lthumb 28.6815 33.64
rfemur -12.2748 6.16211 21.3993
rtibia 26.6945
rfoot -13.0845 -16.9048
rtoes -9.62724
lfemur -14.9332 -4.27092 -25.4938
ltibia 26.8181
lfoot -4.83257 18.9107
ltoes 6.64089
469
root 1.46467 16.0255 9.02773 -171.924 -0.19254 177.431
lowerback -8.20229 -0.735549 -6.09323
upperback 0.371508 -0.430226 0.344384
thorax 5.04869 -0.389132 3.73613
lowerneck -33.6852 -1.49925 0.997079
upperneck 40.0208 -0.7818 0.259057
head 22.2811 0.679905 0.0567711
rclavicle 3.97569e-016 7.7526e-015
rhumerus -35.2047 -18.3565 -77.9004
rradius 27.0801
rwrist 33.3999
rhand -2.65052 -6.96955
rfingers 7.12502
rthumb 23.0493 -35.6112
lclavicle 3.97569e-016 7.7526e-015
lhumerus -29.164 17.9609 81.4593
lradius 19.6088
lwrist -53.9552
lhand 3.21679 5.82822
lfingers 7.12502
lthumb 28.6677 33.6486
rfemur -12.2908 6.18605 21.3853
rtibia 26.7023
rfoot -13.0948 -16.9447
rtoes -9.62216
lfemur -14.9488 -4.2829 -25.5065
ltibia 26.8201
lfoot -4.84276 18.9183
ltoes 6.65576
470
root 1.46239 16.0251 9.02566 -171.91 -0.201664 177.428
lowerback -8.18386 -0.730753 -6.10197
upperback 0.369744 -0.424596 0.354353
thorax 5.03599 -0.3862 3.75231
lowerneck -33.6677 -1.50844 0.958493
upperneck 39.9796 -0.792786 0.284335
head 22.2465 0.670374 0.0725065
rclavicle 1.09332e-015 9.14409e-015
rhumerus -35.1945 -18.3906 -77.8504
rradius 27.0187
rwrist 33.4879
rhand -2.67733 -6.9178
rfingers 7.12502
rthumb 23.0236 -35.5626
lclavicle 1.09332e-015 9.14409e-015
lhumerus -29.2142 18.0892 81.3858
lradius 19.5923
lwrist -54.084
lhand 3.19132 5.79613
lfingers 7.12502
lthumb 28.6434 33.6207
rfemur -12.2985 6.21219 21.3745
rtibia 26.706
rfoot -13.1044 -16.9838
rtoes -9.60889
lfemur -14.9598 -4.29856 -25.5166
ltibia 26.8256
lfoot -4.85708 18.9289
ltoes 6.67837
471
root 1.46019 16.0245 9.02334 -171.899 -0.209982 177.425
lowerback -8.16388 -0.724721 -6.10767
upperback 0.375392 -0.417161 0.360982
thorax 5.02995 -0.382558 3.76348
lowerneck -33.84 -1.52226 0.884636
upperneck 39.9963 -0.810291 0.334687
head 22.3098 0.6556 0.106351
rclavicle -2.2736e-015 1.78906e-015
rhumerus -35.1748 -18.4188 -77.8125
rradius 26.9626
rwrist 33.5592
rhand -2.70725 -6.88046
rfingers 7.12502
rthumb 22.9949 -35.5289
lclavicle -2.2736e-015 1.78906e-015
lhumerus -29.2523 18.2371 81.3039
lradius 19.5739
lwrist -54.2662
lhand 3.16533 5.74851
lfingers 7.12502
lthumb 28.6185 33.5772
rfemur -12.2994 6.23564 21.3632
rtibia 26.7065
rfoot -13.1171 -17.0191
rtoes -9.60606
lfemur -14.9668 -4.31409 -25.5277
ltibia 26.8336
lfoot -4.87646 18.9408
ltoes 6.70179
472
root 1.45798 16.0239 9.02091 -171.889 -0.218993 177.42
lowerback -8.14212 -0.717406 -6.10997
upperback 0.384051 -0.408152 0.363624
thorax 5.02583 -0.37811 3.76873
lowerneck -34.0147 -1.55537 0.784539
upperneck 40.0503 -0.84453 0.411151
head 22.4019 0.638003 0.156011
rclavicle -5.77718e-016 -7.25564e-015
rhumerus -35.1481 -18.4382 -77.7886
rradius 26.9206
rwrist 33.548
rhand -2.70261 -6.88509
rfingers 7.12502
rthumb 22.9994 -35.5329
lclavicle -5.77718e-016 -7.25564e-015
lhumerus -29.2822 18.3787 81.2224
lradius 19.5578
lwrist -54.4522
lhand 3.15121 5.69202
lfingers 7.12502
lthumb 28.605 33.523
rfemur -12.2977 6.25365 21.3497
rtibia 26.705
rfoot -13.1337 -17.0491
rtoes -9.61192
lfemur -14.973 -4.33115 -25.5407
ltibia 26.8429
lfoot -4.89599 18.9531
ltoes 6.7248
473
root 1.45578 16.0232 9.01836 -171.878 -0.227701 177.413
lowerback -8.11958 -0.709918 -6.10916
upperback 0.39291 -0.399128 0.362653
thorax 5.02141 -0.373541 3.76842
lowerneck -34.1774 -1.59677 0.679775
upperneck 40.1271 -0.884559 0.495228
head 22.5081 0.621276 0.210427
rclavicle 4.99446e-015 1.21259e-014
rhumerus -35.1241 -18.4465 -77.7743
rradius 26.8863
rwrist 33.5142
rhand -2.68679 -6.91616
rfingers 7.12502
rthumb 23.0145 -35.5621
lclavicle 4.99446e-015 1.21259e-014
lhumerus -29.3037 18.509 81.1428
lradius 19.536
lwrist -54.6179
lhand 3.1436 5.62751
lfingers 7.12502
lthumb 28.5978 33.4597
rfemur -12.2938 6.26789 21.3335
rtibia 26.7022
rfoot -13.1539 -17.0734
rtoes -9.61494
lfemur -14.9783 -4.345 -25.5565
ltibia 26.8533
lfoot -4.9174 18.9638
ltoes 6.74156
474
root 1.45364 16.0225 9.01574 -171.867 -0.238093 177.405
lowerback -8.09783 -0.703912 -6.10633
upperback 0.400835 -0.392244 0.360612
thorax 5.01666 -0.369948 3.76558
lowerneck -34.2797 -1.62937 0.607578
upperneck 40.2154 -0.910877 0.561568
head 22.6055 0.615192 0.254932
rclavicle -2.68981e-015 -1.91827e-014
rhumerus -35.1051 -18.4513 -77.7615
rradius 26.8541
rwrist 33.4866
rhand -2.66114 -6.96353
rfingers 7.12502
rthumb 23.0391 -35.6064
lclavicle -2.68981e-015 -1.91827e-014
lhumerus -29.3153 18.61 81.0779
lradius 19.5102
lwrist -54.7259
lhand 3.148 5.58445
lfingers 7.12502
lthumb 28.602 33.416
rfemur -12.2886 6.27567 21.3171
rtibia 26.698
rfoot -13.1776 -17.0924
rtoes -9.61779
lfemur -14.9845 -4.35628 -25.5726
ltibia 26.8653
lfoot -4.93814 18.9721
ltoes 6.75682
475
root 1.45162 16.0217 9.01313 -171.858 -0.253559 177.401
lowerback -8.07371 -0.701254 -6.09835
upperback 0.405092 -0.390679 0.359061
thorax 5.00725 -0.36865 3.75968
lowerneck -34.3116 -1.66212 0.547712
upperneck 40.3149 -0.930799 0.623893
head 22.6912 0.616198 0.298539
rclavicle 3.06874e-015 1.26228e-014
rhumerus -35.1 -18.4581 -77.7434
rradius 26.8198
rwrist 33.4864
rhand -2.6364 -7.00878
rfingers 7.12502
rthumb 23.0629 -35.6487
lclavicle 3.06874e-015 1.26228e-014
lhumerus -29.3279 18.7078 81.0124
lradius 19.4739
lwrist -54.8123
lhand 3.17178 5.56651
lfingers 7.12502
lthumb 28.6247 33.3942
rfemur -12.2798 6.28306 21.306
rtibia 26.6921
rfoot -13.2034 -17.1139
rtoes -9.61395
lfemur -14.9902 -4.36708 -25.5837
ltibia 26.8797
lfoot -4.96119 18.9784
ltoes 6.7692
476
root 1.44971 16.0209 9.0106 -171.849 -0.274178 177.401
lowerback -8.04856 -0.70278 -6.08675
upperback 0.406077 -0.395302 0.358267
thorax 4.99446 -0.37017 3.75177
lowerneck -34.4471 -1.69392 0.471157
upperneck 40.0614 -0.950815 0.705285
head 23.2445 0.617993 0.35083
rclavicle -2.62147e-015 4.67144e-015
rhumerus -35.1088 -18.4598 -77.7239
rradius 26.7885
rwrist 33.502
rhand -2.6072 -7.05564
rfingers 7.12502
rthumb 23.0909 -35.6921
lclavicle -2.62147e-015 4.67144e-015
lhumerus -29.3427 18.7874 80.9516
lradius 19.4362
lwrist -54.8628
lhand 3.21136 5.57472
lfingers 7.12502
lthumb 28.6625 33.396
rfemur -12.2687 6.28624 21.2998
rtibia 26.6848
rfoot -13.2271 -17.1358
rtoes -9.60418
lfemur -14.9961 -4.37753 -25.5906
ltibia 26.8961
lfoot -4.9839 18.9817
ltoes 6.779
477
root 1.44795 16.0201 9.00807 -171.842 -0.296961 177.403
lowerback -8.02366 -0.708278 -6.07389
upperback 0.404881 -0.4055 0.359413
thorax 4.98015 -0.374351 3.7445
lowerneck -34.3842 -1.7148 0.421482
upperneck 40.121 -0.954425 0.764454
head 23.2758 0.625118 0.396144
rclavicle -2.27981e-015 8.94531e-016
rhumerus -35.1269 -18.4576 -77.7007
rradius 26.7557
rwrist 33.5453
rhand -2.58424 -7.08833
rfingers 7.12502
rthumb 23.1129 -35.722
lclavicle -2.27981e-015 8.94531e-016
lhumerus -29.3624 18.8704 80.8899
lradius 19.395
lwrist -54.9139
lhand 3.23525 5.59683
lfingers 7.12502
lthumb 28.6853 33.4143
rfemur -12.2559 6.286 21.2974
rtibia 26.6759
rfoot -13.2512 -17.1555
rtoes -9.59108
lfemur -15.0022 -4.38772 -25.5938
ltibia 26.9145
lfoot -5.01129 18.9856
ltoes 6.79584
478
root 1.44636 16.0192 9.00559 -171.836 -0.320744 177.405
lowerback -7.99771 -0.714333 -6.0638
upperback 0.403359 -0.416231 0.359513
thorax 4.96496 -0.378836 3.73765
lowerneck -34.3055 -1.73584 0.368604
upperneck 40.1479 -0.963394 0.821306
head 23.2734 0.626697 0.437453
rclavicle 1.83876e-015 -1.88845e-015
rhumerus -35.1438 -18.4586 -77.6782
rradius 26.7231
rwrist 33.5439
rhand -2.54426 -7.12819
rfingers 7.12502
rthumb 23.1513 -35.757
lclavicle 1.83876e-015 -1.88845e-015
lhumerus -29.3843 18.9512 80.8258
lradius 19.353
lwrist -54.9774
lhand 3.25342 5.62615
lfingers 7.12502
lthumb 28.7027 33.4406
rfemur -12.2413 6.28333 21.2949
rtibia 26.6657
rfoot -13.2733 -17.1731
rtoes -9.57682
lfemur -15.0075 -4.39818 -25.5974
ltibia 26.9341
lfoot -5.04187 18.9898
ltoes 6.8221
